<svg width="116" height="19" viewBox="0 0 116 19" fill="none" xmlns="http://www.w3.org/2000/svg">
<path d="M5.4803 0H0V5.45448C0 7.24284 1.43746 8.76294 3.32412 8.76294H8.80442V3.30846C8.71458 1.5201 7.27712 0 5.4803 0ZM6.5584 6.52749H3.23428C2.60539 6.52749 2.15619 6.08041 2.15619 5.45448V2.23544H5.4803C6.10919 2.23544 6.5584 2.68253 6.5584 3.30846V6.52749ZM13.1168 0C11.32 0 9.79267 1.43068 9.79267 3.30846V8.76294H15.3628C17.1596 8.76294 18.6869 7.33225 18.6869 5.45448V0H13.1168ZM16.4409 5.45448C16.4409 6.08041 15.9917 6.52749 15.3628 6.52749H12.0387V3.30846C12.0387 2.68253 12.4879 2.23544 13.1168 2.23544H16.4409V5.45448ZM15.3628 9.83595H9.88252V15.2904C9.88252 17.0788 11.32 18.5989 13.2066 18.5989H18.6869V13.1444C18.5971 11.2666 17.1596 9.83595 15.3628 9.83595ZM16.4409 16.3634H13.1168C12.4879 16.3634 12.0387 15.9164 12.0387 15.2904V11.982H15.3628C15.9917 11.982 16.4409 12.4291 16.4409 13.055V16.3634ZM0 13.1444V18.5989H5.4803C7.27712 18.5989 8.80442 17.1682 8.80442 15.2904V9.83595H3.32412C1.43746 9.83595 0 11.2666 0 13.1444ZM6.5584 15.2904C6.5584 15.9164 6.10919 16.3634 5.4803 16.3634H2.15619V13.055C2.15619 12.4291 2.60539 11.982 3.23428 11.982H6.5584V15.2904ZM25.1555 1.07301H27.7609V15.1116H31.9834V17.4365H25.1555V1.07301ZM36.0263 1.07301V13.6809C36.0263 14.8433 36.5653 15.2904 37.3739 15.2904C38.1824 15.2904 38.7215 14.8433 38.7215 13.6809V1.07301H41.1472V13.5021C41.1472 16.0952 39.7996 17.6153 37.284 17.6153C34.7685 17.6153 33.4209 16.0952 33.4209 13.5021V1.07301H36.0263ZM50.7602 11.3561V13.5021C50.7602 16.0952 49.4126 17.6153 46.897 17.6153C44.3815 17.6153 43.0339 16.0952 43.0339 13.5021V5.00739C43.0339 2.41428 44.3815 0.894177 46.897 0.894177C49.4126 0.894177 50.7602 2.41428 50.7602 5.00739V6.61691H48.3345V4.82856C48.3345 3.66613 47.7954 3.21904 46.9869 3.21904C46.1783 3.21904 45.6393 3.66613 45.6393 4.82856V13.6809C45.6393 14.8433 46.1783 15.2904 46.9869 15.2904C47.7954 15.2904 48.3345 14.8433 48.3345 13.6809V11.3561H50.7602ZM55.7015 10.909L54.8929 12.4291V17.4365H52.2875V1.07301H54.8929V8.22643L58.3068 1.07301H60.9122L57.3186 8.40527L60.9122 17.4365H58.217L55.7015 10.909ZM64.416 12.0714L61.1818 1.07301H63.877L65.8535 8.49469L67.83 1.07301H70.2557L67.0214 12.0714V17.4365H64.416V12.0714ZM75.197 8.31585H78.7906V13.5021C78.7906 16.0952 77.443 17.6153 74.9274 17.6153C72.4119 17.6153 71.0643 16.0952 71.0643 13.5021V5.00739C71.0643 2.41428 72.4119 0.894177 74.9274 0.894177C77.443 0.894177 78.7906 2.41428 78.7906 5.00739V6.61691H76.3649V4.82856C76.3649 3.66613 75.8258 3.21904 75.0173 3.21904C74.2087 3.21904 73.6697 3.66613 73.6697 4.82856V13.6809C73.6697 14.8433 74.2087 15.2904 75.0173 15.2904C75.8258 15.2904 76.3649 14.8433 76.3649 13.6809V10.6407H75.197V8.31585ZM86.1576 17.4365C85.9779 16.9894 85.888 16.7211 85.888 15.4693V12.8762C85.888 11.3561 85.349 10.8195 84.1811 10.8195H83.2827V17.4365H80.6773V1.07301H84.5404C87.2357 1.07301 88.4036 2.32486 88.4036 4.82856V6.08041C88.4036 7.77934 87.8645 8.85236 86.6966 9.38886C87.9544 9.92537 88.4036 11.1772 88.4036 12.8762V15.3799C88.4036 16.1846 88.4036 16.7211 88.6731 17.347H86.1576V17.4365ZM83.2827 3.48729V8.49469H84.2709C85.2592 8.49469 85.7982 8.0476 85.7982 6.79575V5.09681C85.7982 3.93438 85.4388 3.39787 84.4506 3.39787H83.2827V3.48729ZM98.5556 17.4365H95.9502L95.501 14.4857H92.3566L91.9074 17.4365H89.5715L92.1769 1.07301H95.9502L98.5556 17.4365ZM92.6261 12.2502H95.1417L93.8839 4.0238L92.6261 12.2502ZM103.227 0.894177C105.743 0.894177 107.001 2.41428 107.001 5.00739V5.5439H104.575V4.82856C104.575 3.66613 104.126 3.21904 103.317 3.21904C102.509 3.21904 102.059 3.66613 102.059 4.82856C102.059 8.22643 107.091 8.85236 107.091 13.5021C107.091 16.0952 105.743 17.6153 103.227 17.6153C100.712 17.6153 99.3642 16.0952 99.3642 13.5021V12.5185H101.79V13.6809C101.79 14.8433 102.329 15.2904 103.138 15.2904C103.946 15.2904 104.485 14.8433 104.485 13.6809C104.485 10.283 99.454 9.65712 99.454 5.00739C99.3642 2.41428 100.712 0.894177 103.227 0.894177ZM111.942 0.894177C114.457 0.894177 115.715 2.41428 115.715 5.00739V5.5439H113.29V4.82856C113.29 3.66613 112.84 3.21904 112.032 3.21904C111.223 3.21904 110.774 3.66613 110.774 4.82856C110.774 8.22643 115.805 8.85236 115.805 13.5021C115.805 16.0952 114.457 17.6153 111.942 17.6153C109.426 17.6153 108.079 16.0952 108.079 13.5021V12.5185H110.504V13.6809C110.504 14.8433 111.044 15.2904 111.852 15.2904C112.661 15.2904 113.2 14.8433 113.2 13.6809C113.2 10.283 108.169 9.65712 108.169 5.00739C108.169 2.41428 109.426 0.894177 111.942 0.894177Z" fill="black"/>
</svg>
