<svg width="122" height="20" viewBox="0 0 122 20" fill="none" xmlns="http://www.w3.org/2000/svg">
<path d="M5.76174 1.30656e-05H0.000650141V5.86539C-0.000596121 6.33295 0.0889394 6.79615 0.26411 7.22836C0.43928 7.66057 0.69663 8.05327 1.02137 8.38388C1.3461 8.7145 1.73182 8.97651 2.15635 9.15485C2.58087 9.33319 3.03584 9.42435 3.49508 9.42308H9.25618V3.5577C9.22554 2.62405 8.84755 1.73715 8.19874 1.07659C7.54992 0.416038 6.67879 0.0312004 5.76174 1.30656e-05ZM6.89507 7.01924H3.40064C3.25039 7.02461 3.10066 6.99844 2.96077 6.94235C2.82088 6.88627 2.69382 6.80147 2.58751 6.69323C2.4812 6.585 2.39791 6.45565 2.34283 6.31322C2.28774 6.1708 2.26203 6.01836 2.26731 5.86539V2.40386H5.76174C5.91199 2.39848 6.06173 2.42465 6.20161 2.48074C6.3415 2.53682 6.46856 2.62162 6.57487 2.72986C6.68118 2.83809 6.76447 2.96744 6.81956 3.10987C6.87464 3.25229 6.90035 3.40473 6.89507 3.5577V7.01924ZM13.7895 1.30656e-05C13.3302 -0.00125576 12.8753 0.0899005 12.4508 0.268242C12.0262 0.446583 11.6405 0.708592 11.3158 1.03921C10.991 1.36982 10.7337 1.76252 10.5585 2.19473C10.3833 2.62694 10.2938 3.09014 10.2951 3.5577V9.42308H16.1506C16.6098 9.42435 17.0648 9.33319 17.4893 9.15485C17.9139 8.97651 18.2996 8.7145 18.6243 8.38388C18.949 8.05327 19.2064 7.66057 19.3816 7.22836C19.5567 6.79615 19.6463 6.33295 19.645 5.86539V1.30656e-05H13.7895ZM17.2839 5.86539C17.2892 6.01836 17.2635 6.1708 17.2084 6.31322C17.1533 6.45565 17.07 6.585 16.9637 6.69323C16.8574 6.80147 16.7304 6.88627 16.5905 6.94235C16.4506 6.99844 16.3008 7.02461 16.1506 7.01924H12.6562V3.5577C12.6509 3.40473 12.6766 3.25229 12.7317 3.10987C12.7868 2.96744 12.8701 2.83809 12.9764 2.72986C13.0827 2.62162 13.2097 2.53682 13.3496 2.48074C13.4895 2.42465 13.6392 2.39848 13.7895 2.40386H17.2839V5.86539ZM16.1506 10.5769H10.3895V16.4423C10.3883 16.9099 10.4778 17.3731 10.653 17.8053C10.8281 18.2375 11.0855 18.6302 11.4102 18.9608C11.735 19.2914 12.1207 19.5534 12.5452 19.7318C12.9697 19.9101 13.4247 20.0013 13.8839 20H19.645V14.1346C19.6304 13.1957 19.2576 12.2994 18.6054 11.6354C17.9532 10.9714 17.0728 10.5918 16.1506 10.5769ZM17.2839 17.5961H13.7895C13.6392 17.6015 13.4895 17.5753 13.3496 17.5193C13.2097 17.4632 13.0827 17.3784 12.9764 17.2701C12.8701 17.1619 12.7868 17.0326 12.7317 16.8901C12.6766 16.7477 12.6509 16.5953 12.6562 16.4423V12.8846H16.1506C16.3008 12.8792 16.4506 12.9054 16.5905 12.9615C16.7304 13.0176 16.8574 13.1024 16.9637 13.2106C17.07 13.3188 17.1533 13.4482 17.2084 13.5906C17.2635 13.733 17.2892 13.8855 17.2839 14.0385V17.5961ZM0.000650141 14.1346V20H5.76174C6.22099 20.0013 6.67595 19.9101 7.10048 19.7318C7.525 19.5534 7.91072 19.2914 8.23546 18.9608C8.56019 18.6302 8.81754 18.2375 8.99271 17.8053C9.16788 17.3731 9.25742 16.9099 9.25618 16.4423V10.5769H3.49508C3.03372 10.5678 2.57529 10.6535 2.14726 10.8291C1.71924 11.0046 1.33043 11.2664 1.00413 11.5986C0.677837 11.9308 0.420771 12.3266 0.248341 12.7624C0.0759105 13.1982 -0.00833588 13.6649 0.000650141 14.1346ZM6.89507 16.4423C6.90035 16.5953 6.87464 16.7477 6.81956 16.8901C6.76447 17.0326 6.68118 17.1619 6.57487 17.2701C6.46856 17.3784 6.3415 17.4632 6.20161 17.5193C6.06173 17.5753 5.91199 17.6015 5.76174 17.5961H2.26731V14.0385C2.26203 13.8855 2.28774 13.733 2.34283 13.5906C2.39791 13.4482 2.4812 13.3188 2.58751 13.2106C2.69382 13.1024 2.82088 13.0176 2.96077 12.9615C3.10066 12.9054 3.25039 12.8792 3.40064 12.8846H6.89507V16.4423ZM26.445 1.15386H29.1839V16.25H33.6228V18.75H26.445V1.15386ZM37.8727 1.15386V14.7115C37.8727 15.9615 38.4394 16.4423 39.2894 16.4423C40.1394 16.4423 40.7061 15.9615 40.7061 14.7115V1.15386H43.2561V14.5192C43.2561 17.3077 41.8394 18.9423 39.195 18.9423C36.5505 18.9423 35.1339 17.3077 35.1339 14.5192V1.15386H37.8727ZM53.3616 12.2115V14.5192C53.3616 17.3077 51.9449 18.9423 49.3005 18.9423C46.656 18.9423 45.2394 17.3077 45.2394 14.5192V5.38462C45.2394 2.59616 46.656 0.96155 49.3005 0.96155C51.9449 0.96155 53.3616 2.59616 53.3616 5.38462V7.11539H50.8116V5.19231C50.8116 3.94232 50.2449 3.46155 49.3949 3.46155C48.5449 3.46155 47.9783 3.94232 47.9783 5.19231V14.7115C47.9783 15.9615 48.5449 16.4423 49.3949 16.4423C50.2449 16.4423 50.8116 15.9615 50.8116 14.7115V12.2115H53.3616ZM58.556 11.7308L57.706 13.3654V18.75H54.9671V1.15386H57.706V8.84616L61.2949 1.15386H64.0338L60.256 9.03846L64.0338 18.75H61.2004L58.556 11.7308ZM67.7171 12.9808L64.3171 1.15386H67.1504L69.2282 9.13462L71.306 1.15386H73.856L70.456 12.9808V18.75H67.7171V12.9808ZM79.0504 8.94231H82.8281V14.5192C82.8281 17.3077 81.4115 18.9423 78.7671 18.9423C76.1226 18.9423 74.706 17.3077 74.706 14.5192V5.38462C74.706 2.59616 76.1226 0.96155 78.7671 0.96155C81.4115 0.96155 82.8281 2.59616 82.8281 5.38462V7.11539H80.2782V5.19231C80.2782 3.94232 79.7115 3.46155 78.8615 3.46155C78.0115 3.46155 77.4448 3.94232 77.4448 5.19231V14.7115C77.4448 15.9615 78.0115 16.4423 78.8615 16.4423C79.7115 16.4423 80.2782 15.9615 80.2782 14.7115V11.4423H79.0504V8.94231ZM90.5726 18.75C90.316 18.0774 90.2189 17.3526 90.2892 16.6346V13.8461C90.2892 12.2115 89.7226 11.6346 88.4948 11.6346H87.5504V18.75H84.8115V1.15386H88.8726C91.7059 1.15386 92.9337 2.50001 92.9337 5.19231V6.53847C92.9337 8.36539 92.367 9.51923 91.1392 10.0962C92.4614 10.6731 92.9337 12.0192 92.9337 13.8461V16.5385C92.8747 17.2562 92.9714 17.9784 93.217 18.6538H90.5726V18.75ZM87.5504 3.75001V9.13462H88.5892C89.6281 9.13462 90.1948 8.65385 90.1948 7.3077V5.48077C90.1948 4.23078 89.817 3.65385 88.7781 3.65385H87.5504V3.75001ZM103.606 18.75H100.867L100.395 15.5769H97.0892L96.617 18.75H94.1614L96.9003 1.15386H100.867L103.606 18.75ZM97.3725 13.1731H100.017L98.6948 4.32693L97.3725 13.1731ZM108.517 0.96155C111.161 0.96155 112.484 2.59616 112.484 5.38462V5.96154H109.934V5.19231C109.934 3.94232 109.461 3.46155 108.611 3.46155C107.761 3.46155 107.289 3.94232 107.289 5.19231C107.289 8.84616 112.578 9.51923 112.578 14.5192C112.578 17.3077 111.161 18.9423 108.517 18.9423C105.873 18.9423 104.456 17.3077 104.456 14.5192V13.4615H107.006V14.7115C107.006 15.9615 107.573 16.4423 108.423 16.4423C109.273 16.4423 109.839 15.9615 109.839 14.7115C109.839 11.0577 104.55 10.3846 104.55 5.38462C104.456 2.59616 105.873 0.96155 108.517 0.96155ZM117.678 0.96155C120.322 0.96155 121.645 2.59616 121.645 5.38462V5.96154H119.095V5.19231C119.095 3.94232 118.622 3.46155 117.772 3.46155C116.922 3.46155 116.45 3.94232 116.45 5.19231C116.45 8.84616 121.739 9.51923 121.739 14.5192C121.739 17.3077 120.322 18.9423 117.678 18.9423C115.034 18.9423 113.617 17.3077 113.617 14.5192V13.4615H116.167V14.7115C116.167 15.9615 116.734 16.4423 117.584 16.4423C118.434 16.4423 119 15.9615 119 14.7115C119 11.0577 113.711 10.3846 113.711 5.38462C113.711 2.59616 115.034 0.96155 117.678 0.96155Z" fill="white"/>
</svg>
