<svg width="22" height="20" viewBox="0 0 22 20" fill="none" xmlns="http://www.w3.org/2000/svg">
<path d="M5.59102 0.898692C5.20224 0 4.75792 0 4.36914 0C4.07293 0 3.68415 0 3.35091 0C3.01767 0 2.38822 0.14379 1.88836 0.665031C1.40701 1.18627 0 2.46242 0 5.05065C0 7.63888 1.9439 10.1372 2.24011 10.4787C2.53632 10.8202 5.9798 16.3202 11.4597 18.4052C16.0325 20.1487 16.9397 19.8251 17.9579 19.7173C18.9206 19.6274 21.1607 18.4412 21.605 17.2189C22.0494 15.9967 22.0494 14.9542 21.9383 14.7206C21.7902 14.4869 21.4569 14.397 20.9201 14.1095C20.3832 13.8219 17.7173 12.5457 17.2359 12.4199C16.7546 12.2402 16.3658 12.1323 16.014 12.7075C15.6808 13.2287 14.607 14.397 14.3108 14.7745C13.9776 15.098 13.6813 15.1519 13.1445 14.9183C12.6076 14.6307 10.8673 14.1095 8.77532 12.3301C7.16466 10.9101 6.05386 9.22058 5.75764 8.69934C5.4244 8.1781 5.7021 7.89051 5.99832 7.62091C6.23899 7.38725 6.5352 7.0098 6.83142 6.68627C7.12763 6.36274 7.16466 6.16503 7.3683 5.78757C7.55344 5.46405 7.46087 5.12254 7.31276 4.85294C7.14614 4.52941 6.09088 1.94117 5.59102 0.898692Z" fill="white"/>
</svg>
